<?xml version="1.0" encoding="UTF-8"?>
<svg width="162px" height="54px" viewBox="0 0 162 54" version="1.1" xmlns="http://www.w3.org/2000/svg" xmlns:xlink="http://www.w3.org/1999/xlink">
    <!-- Generator: Sketch 59.1 (86144) - https://sketch.com -->
    <title>Path 3</title>
    <desc>Created with Sketch.</desc>
    <g id="Symbols" stroke="none" stroke-width="1" fill="none" fill-rule="evenodd">
        <g id="Logo-/-Brands-/-International-Brands-/-Fila-/-Monochrome" transform="translate(-59.000000, -73.000000)" fill="#1F1F1F">
            <g id="Path-3" transform="translate(59.093273, 73.536073)">
                <path d="M59.6464364,-5.68434189e-14 C63.5472,-5.68434189e-14 66.6929455,3.27141818 66.6929455,7.17218182 L66.8186182,46.1817818 C66.8186182,50.0825455 63.6728727,53.2282911 59.7721091,53.2282911 L58.8914182,53.2282911 C54.9906545,53.2292727 51.9705818,50.0825455 51.9705818,46.1817818 L51.8449091,7.17218182 C51.8449091,3.27141818 54.8649818,-5.68434189e-14 58.8914182,-5.68434189e-14 L59.6464364,-5.68434189e-14 Z M36.8702182,20.0084727 C40.7709818,20.0084727 43.9167273,23.1542182 43.9167273,27.0549818 L43.9167273,27.4329818 C43.9167273,31.3337455 40.7709818,34.4794909 36.8702182,34.4794909 L16.8627273,34.4794909 C15.8553818,34.4794909 14.9746909,35.3601818 14.9746909,36.3665455 L14.9746909,46.1817818 C14.9746909,50.0825455 11.8289455,53.2282909 7.92818182,53.2282909 L7.04749091,53.2282909 C3.14672727,53.2282909 0.000981818182,50.0825455 0.000981818182,46.1817818 L0.000981818182,26.5522909 C0,22.7772 3.52374545,20.0084727 7.42450909,20.0084727 L36.8702182,20.0084727 Z M80.4089455,0.125672727 C84.3097091,0.125672727 87.4554545,3.27141818 87.4554545,7.17218182 L87.4554545,35.9885455 C87.4554545,36.9949091 88.2104727,37.8756 89.3434909,37.8756 L102.933818,37.8756 C105.324545,37.8756 106.708909,36.9949091 107.9676,34.8565091 L126.213709,4.65578182 C127.975091,1.76138182 130.743818,0.251345455 134.015236,0.251345455 C137.161964,0.252327273 139.678364,1.63669091 141.565418,4.65676364 L157.295127,30.3273818 C160.818873,35.8638545 161.573891,37.2482182 161.573891,41.4013091 C161.573891,47.8184727 155.659418,52.7265818 150.499964,52.7265818 L129.233782,52.7265818 C125.333018,52.7265818 122.187273,50.0835273 122.187273,46.1827636 L122.187273,45.8057455 C122.187273,41.9049818 125.333018,38.7582545 129.233782,38.7582545 L142.321418,38.7582545 C143.076436,38.7582545 143.580109,38.6325818 143.831455,38.1289091 C144.0828,37.4995636 143.957127,37.2482182 143.579127,36.6188727 L134.267564,21.6441818 C134.141891,21.3918545 134.015236,21.0148364 133.763891,21.0148364 C133.386873,21.0148364 133.260218,21.3928364 133.134545,21.6441818 L118.914873,46.0561091 C116.649818,49.9568727 114.006764,52.7256 110.232655,52.7256 L82.9263273,52.7256 C77.6402182,52.7256 72.4817455,47.6918182 72.4817455,42.4066909 L72.4817455,7.17218182 C72.4817455,3.27141818 75.6274909,0.125672727 79.5282545,0.125672727 L80.4089455,0.125672727 Z M40.3929818,1.13301818 C44.2937455,1.13301818 47.4404727,4.15309091 47.4404727,8.05385455 L47.4404727,8.55752727 C47.4404727,12.3786835 44.4208727,15.4753241 40.6308416,15.6001261 L40.3929818,15.6040364 L40.3929818,15.6040364 L7.17218182,15.6040364 C3.27141818,15.6040364 0,12.4582909 0,8.55752727 L0,8.05385455 C0,4.15309091 3.2724,1.13301818 7.17218182,1.13301818 L40.3929818,1.13301818 Z" id="Path-2"></path>
            </g>
        </g>
    </g>
</svg>