<svg width="119" height="85" viewBox="0 0 119 85" fill="none" xmlns="http://www.w3.org/2000/svg">
<g clip-path="url(#clip0_1846_17490)">
<path d="M30.5693 20.9729C30.5693 20.9729 39.2989 22.0338 40.5989 22.1921C45.3025 22.7701 47.0279 25.2007 48.4776 29.1593C49.9273 33.1101 54.7806 46.3636 54.7806 46.3636L56.4903 46.1578C63.4393 45.2473 66.189 45.7619 68.2689 47.1157L58.6648 24.694C55.6394 17.6476 51.8024 16.2067 43.6086 14.5519C41.7571 14.1877 37.2583 13.2773 34.4141 12.6993C31.5384 12.1293 29.3008 13.8631 29.2536 16.3492C29.1354 15.8187 27.8275 11.3771 27.8275 11.3771L12.338 8.26562L20.9573 50.7023L38.4559 48.4459L30.5614 20.9649L30.5693 20.9729ZM98.8068 33.5059C98.8068 33.5059 97.9795 32.1679 97.7511 31.7958C96.9868 30.529 95.5214 29.3889 93.1499 29.1198C91.1881 28.906 69.5453 26.4358 69.5453 26.4358L72.5628 32.73L98.8068 33.498V33.5059ZM79.4016 46.9337L104.212 42.3654L101.619 38.1138L76.0531 39.9981L79.3937 46.9337H79.4016ZM71.4441 54.5263C69.6398 50.2906 65.2435 49.5622 58.4678 50.821C51.6921 52.0878 22.3518 57.5111 22.3518 57.5111L24.9045 70.0917L61.5878 59.34C68.7732 57.2103 72.5313 57.0836 73.398 59.0867C75.2258 63.3778 80.3943 63.7025 86.2009 61.0818C90.9281 58.96 109.317 50.7498 109.317 50.7498L106.481 46.0944L72.161 56.189C72.161 56.189 71.9168 55.6189 71.4441 54.5342M82.6318 70.6855C75.8167 74.5729 70.1126 74.3433 68.2138 69.4346C67.0241 66.3706 63.455 66.806 56.9709 69.3158C52.1806 71.1764 21.8003 83.2107 18.1288 84.5408C14.2604 85.9105 10.5338 84.1686 10.0138 80.21C9.48589 76.3384 0.0708381 6.31797 0.0708381 6.31797C-0.512186 2.09013 2.65505 -0.823428 6.73623 0.205819L47.8867 10.5537C54.5442 12.2322 59.1218 16.0721 60.7605 19.7378C60.7605 19.7378 88.5724 24.7415 92.1651 25.3828C97.2311 26.3012 99.5789 28.5893 101.391 31.4949C102.628 33.4743 114.485 52.2778 114.485 52.2778C114.485 52.2778 88.7615 67.1782 82.6239 70.6934" fill="#100D04"/>
<path d="M119 57.4874C119 58.6354 118.07 59.5775 116.92 59.5775C115.77 59.5775 114.84 58.6354 114.84 57.4874C114.84 56.3394 115.77 55.3972 116.92 55.3972C118.07 55.3972 119 56.3394 119 57.4874ZM118.661 57.4874C118.661 56.4819 117.913 55.6743 116.912 55.6743C115.912 55.6743 115.163 56.474 115.163 57.4874C115.163 58.5008 115.912 59.3004 116.912 59.3004C117.913 59.3004 118.661 58.5008 118.661 57.4874ZM116.479 58.7304H116.14V56.2444H117.086C117.645 56.2444 117.889 56.4898 117.889 56.9332C117.889 57.3765 117.606 57.5666 117.314 57.6299L118.007 58.7383H117.629L116.959 57.6299H116.479V58.7383V58.7304ZM116.865 57.3449C117.188 57.3449 117.558 57.3607 117.558 56.9253C117.558 56.5769 117.275 56.5215 117.022 56.5215H116.487V57.3369H116.873L116.865 57.3449Z" fill="#100D04"/>
</g>
<defs>
<clipPath id="clip0_1846_17490">
<rect width="119" height="85" fill="white"/>
</clipPath>
</defs>
</svg>
