<?xml version="1.0" encoding="UTF-8"?>
<svg width="199px" height="65px" viewBox="0 0 199 65" version="1.1" xmlns="http://www.w3.org/2000/svg" xmlns:xlink="http://www.w3.org/1999/xlink">
    <!-- Generator: Sketch 59.1 (86144) - https://sketch.com -->
    <title>Group 2</title>
    <desc>Created with Sketch.</desc>
    <g id="Symbols" stroke="none" stroke-width="1" fill="none" fill-rule="evenodd">
        <g id="Logo-/-Brands-/-International-Brands-/-Asics-/-Black" transform="translate(-41.000000, -68.000000)" fill="#1F1F1F">
            <g id="Group-2" transform="translate(41.000000, 68.000000)">
                <path d="M20.0584714,46.0122183 C16.3771991,46.0122183 14.6076018,43.1664085 15.5297414,39.8724648 C17.4391396,33.050669 29.7010915,22.9381338 38.0549931,22.9381338 C44.1529542,22.9381338 43.6866476,28.4182746 40.1164874,33.0950704 L38.1410595,35.2908803 C31.0590275,42.2797535 24.4911167,46.0122183 20.0584714,46.0122183 Z M49.9262311,-2.84217094e-14 C39.2621991,0.00457746479 27.5152792,6.56316901 20.1422609,12.7738732 L20.7255995,13.6207042 C32.169238,5.55521127 48.05554,0.309894366 52.4362723,8.1771831 C54.7486796,12.3298592 50.8215034,20.7116549 45.2941304,27.3375352 C46.6192792,24.411162 45.7463204,18.7936972 38.0390549,18.7936972 C25.2215423,18.7936972 7.10542736e-14,35.8589437 7.10542736e-14,53.3173944 C7.10542736e-14,60.314507 4.82518078,64.8777817 12.7751625,64.8777817 C34.0590549,64.8777817 62.9268055,29.8075352 62.9268055,12.1925352 C62.924984,5.97176056 59.3639314,-2.84217094e-14 49.9262311,-2.84217094e-14 L49.9262311,-2.84217094e-14 Z" id="Fill-1"></path>
                <path d="M77.3272105,46.0122183 C76.0908604,46.0122183 75.0589748,45.5750704 74.4141602,44.7854577 C73.7415675,43.9523592 73.5412014,42.7750352 73.8617872,41.5569718 C74.5658009,38.9134859 77.4000709,36.8421831 80.3099336,36.8421831 L87.1588124,36.8421831 L84.7138902,46.0122183 L77.3272105,46.0122183 Z M97.0168261,18.5149296 C95.0546041,16.0948239 91.886087,15.0108803 89.6169405,15.0108803 L77.167373,15.0108803 L75.0548764,22.9326408 L86.7931442,22.9326408 L87.9174714,23.0521127 C87.9293112,23.0521127 88.9994485,23.1766197 89.5882517,23.983169 C90.0714073,24.6537676 90.1406247,25.6548592 89.7949931,26.9635563 L89.2389771,29.0467606 L81.8445561,29.0467606 C75.4774668,29.0467606 66.603524,33.6384155 64.62673,41.0539085 C63.6412929,44.7529577 64.503778,47.9558099 66.4159085,50.31 C68.3125561,52.6472535 71.8890915,53.9344366 75.7570686,53.9344366 L82.6064027,53.9344366 L82.6032151,53.9358099 L91.3091236,53.9358099 L98.4002632,27.3393662 C99.5792357,22.9083803 98.3014462,20.0941549 97.0168261,18.5149296 L97.0168261,18.5149296 Z" id="Fill-2"></path>
                <path d="M182.520341,15.0108803 C179.15419,15.0108803 176.027568,16.0124296 173.480641,17.909331 C170.910034,19.8222535 169.493355,22.1215141 168.648174,25.2900352 C166.818011,32.1594366 172.184636,35.4739789 176.504348,37.8231338 C179.598638,39.5094718 182.27216,40.9623592 181.697018,43.1165141 C181.284902,44.6636972 180.614586,46.014507 176.805808,46.014507 L165.183206,46.014507 L163.074352,53.9358099 L175.938769,53.9358099 C179.388709,53.9358099 182.570888,53.2130282 185.136941,51.2337324 C187.707547,49.2484859 189.157924,46.4791197 190.057295,43.1018662 C190.916593,39.8848239 190.33462,36.817007 188.27859,34.5241549 C186.563638,32.602993 184.095492,31.2654577 181.919243,30.0844718 C179.133698,28.5771127 176.507991,27.1553521 176.967922,25.4296479 C177.247069,24.3891901 178.279865,22.9326408 180.528975,22.9326408 L191.832357,22.9326408 L193.944854,15.0108803 L182.520341,15.0108803" id="Fill-3"></path>
                <path d="M115.064805,15.0108803 C111.697744,15.0108803 108.569755,16.0124296 106.022373,17.909331 C103.453588,19.8222535 102.036908,22.1215141 101.187629,25.2900352 C99.3570114,32.1594366 104.731833,35.4739789 109.046535,37.8231338 C112.141281,39.5094718 114.815714,40.9623592 114.239661,43.1165141 C113.827089,44.6636972 113.156318,46.014507 109.347995,46.014507 L97.7276705,46.014507 L95.6151739,53.9358099 L108.480501,53.9358099 C111.933174,53.9358099 115.116719,53.2130282 117.681405,51.2337324 C120.252922,49.2484859 121.702389,46.4791197 122.60176,43.1018662 C123.459236,39.8848239 122.876808,36.817007 120.823966,34.5241549 C119.110835,32.602993 116.639046,31.2654577 114.460064,30.0844718 C111.678162,28.5771127 109.051545,27.1553521 109.513297,25.4296479 C109.790622,24.3891901 110.82524,22.9326408 113.070707,22.9326408 L124.370902,22.9326408 L126.486586,15.0108803 L115.064805,15.0108803" id="Fill-4"></path>
                <polyline id="Fill-5" points="132.618245 15.0108803 122.528899 53.9358099 131.051291 53.9358099 141.136082 15.0108803 132.618245 15.0108803"></polyline>
                <path d="M163.817073,15.0108803 C148.811016,15.0662676 140.958485,25.1138028 138.463471,34.4728873 C135.506249,45.570493 141.384263,53.9358099 152.134817,53.9358099 L159.33889,53.9358099 L161.447744,46.014507 L154.246858,46.014507 C150.222231,46.014507 144.691215,42.8308803 146.920744,34.4728873 C148.691707,27.8273239 155.133023,22.9326408 162.207314,22.9326408 L166.78067,22.9326408 L168.892712,15.0108803 L163.817073,15.0108803" id="Fill-6"></path>
                <path d="M193.344666,52.1560915 L194.092396,52.1560915 L194.092396,50.4738732 L194.684842,50.4738732 C195.083297,50.4738732 195.361533,50.5182746 195.515451,50.6075352 C195.782302,50.7695775 195.922103,51.0959507 195.922103,51.5903169 L195.922103,51.9304225 L195.934398,52.066831 C195.939863,52.0855986 195.941684,52.1016197 195.946238,52.1176408 C195.949426,52.1304577 195.953069,52.1428169 195.955801,52.1560915 L196.657538,52.1560915 L196.633403,52.1052817 C196.616554,52.0695775 196.605169,51.9935915 196.595151,51.8819014 C196.589231,51.7679225 196.581945,51.6635563 196.584677,51.5628521 L196.584677,51.2511268 C196.581945,51.0350704 196.509085,50.8144366 196.353346,50.5892254 C196.198517,50.3617254 195.953069,50.2244014 195.619732,50.1694718 C195.881119,50.1273592 196.089227,50.0614437 196.236769,49.9621127 C196.51546,49.7808451 196.652073,49.5025352 196.651162,49.1194014 C196.652073,48.5829225 196.433492,48.2226761 195.994963,48.0372887 C195.747693,47.9361268 195.361533,47.8862324 194.831474,47.8862324 L193.344666,47.8862324 L193.344666,52.1560915 L193.344666,52.1560915 Z M195.480842,49.853169 C195.323281,49.9149648 195.08603,49.9483803 194.769542,49.9483803 L194.092396,49.9483803 L194.091485,48.4011972 L194.73038,48.4011972 C195.145684,48.4011972 195.448055,48.4524648 195.636581,48.5591197 C195.826018,48.6657746 195.922103,48.8731338 195.922103,49.1834859 C195.922103,49.5139789 195.772739,49.7359859 195.480842,49.853169 Z M197.652993,47.2865845 C196.894334,46.5299296 195.976293,46.1527465 194.902968,46.1527465 C193.841027,46.1527465 192.928451,46.5299296 192.17389,47.2865845 C191.417053,48.0464437 191.042732,48.9628521 191.042732,50.0321479 C191.042732,51.1147183 191.417053,52.036162 192.166149,52.7946479 C192.919343,53.5558803 193.83192,53.9380986 194.905245,53.9380986 C195.979025,53.9380986 196.894334,53.5558803 197.650261,52.7946479 C198.408009,52.0311268 198.787794,51.1105986 198.787794,50.0321479 C198.787794,48.9578169 198.408009,48.0414085 197.652993,47.2865845 Z M197.264101,47.6628521 C197.915291,48.3183451 198.238153,49.1065845 198.238153,50.0321479 C198.238153,50.965493 197.915291,51.7601408 197.264101,52.4183803 C196.617465,53.0752465 195.833304,53.4043662 194.905245,53.4043662 C193.980373,53.4043662 193.196213,53.0752465 192.544112,52.4183803 C191.901119,51.7601408 191.579167,50.965493 191.579167,50.0321479 C191.579167,49.1065845 191.903851,48.3183451 192.548666,47.6628521 C193.202133,47.0055282 193.987659,46.6791549 194.902968,46.6791549 C195.826929,46.6791549 196.616554,47.0055282 197.264101,47.6628521 L197.264101,47.6628521 Z" id="Fill-7"></path>
            </g>
        </g>
    </g>
</svg>